<svg width="165" height="55" viewBox="0 0 165 55" version="1.1" xmlns="http://www.w3.org/2000/svg" xmlns:xlink="http://www.w3.org/1999/xlink">
<title>Logo</title>
<desc>Created using Figma</desc>
<g id="Canvas" transform="translate(752 -5553)">
<g id="Logo">
<g id="Frame">
<use xlink:href="#path0_fill" transform="translate(-752 5553)" fill="#FF5621"/>
</g>
<g id="Logo">
<use xlink:href="#path1_fill" transform="translate(-722 5572)" fill="#FFFFFF"/>
</g>
</g>
</g>
<defs>
<path id="path0_fill" d="M 0 0L 164.014 0L 164.014 55L 0 55L 0 0Z"/>
<path id="path1_fill" fill-rule="evenodd" d="M 90.1226 8.80371C 90.1226 11.8931 92.5787 14.3931 95.6138 14.3931C 96.5436 14.3931 97.4208 14.1606 98.1752 13.75L 95.9647 11.4819C 95.3331 10.8394 95.3331 9.80371 95.9647 9.16064C 96.5963 8.51807 97.6138 8.51807 98.2454 9.16064L 100.474 11.4106C 100.877 10.6431 101.105 9.75 101.105 8.80371C 101.105 5.71436 98.6314 3.21436 95.6138 3.21436C 92.5963 3.21436 90.1226 5.71436 90.1226 8.80371ZM 104.281 8.80371C 104.281 10.6431 103.719 12.3569 102.772 13.7681L 104.193 15.1963C 104.824 15.8394 104.824 16.875 104.193 17.5181C 103.877 17.8394 103.456 18 103.052 18C 102.631 18 102.228 17.8394 101.912 17.5181L 100.491 16.0713C 99.0875 17.0356 97.4208 17.6069 95.6138 17.6069C 90.8419 17.6069 86.9647 13.6606 86.9647 8.80371C 86.9647 3.94629 90.8419 0 95.6138 0C 100.386 0 104.263 3.94629 104.281 8.80371ZM 81.1754 15.6606C 81.1754 16.5718 81.8947 17.3037 82.7894 17.3037C 83.6841 17.3037 84.4034 16.5537 84.4034 15.6431L 84.4034 1.94678C 84.4034 1.03564 83.6841 0.303711 82.7894 0.303711C 81.8947 0.303711 81.1754 1.03564 81.1754 1.94678L 81.1754 15.6606ZM 1.61401 17.3037C 0.719299 17.3037 0 16.5713 0 15.6606L 0 2.26807C 0 1.35693 0.719299 0.625 1.61401 0.625C 2.50879 0.625 3.22809 1.35693 3.22809 2.26807L 3.22809 15.6606C 3.22809 16.5537 2.49121 17.3037 1.61401 17.3037ZM 6.42126 9.57129L 6.42126 2.26807C 6.42126 1.35693 7.14056 0.625 8.03528 0.625C 8.93005 0.625 9.64935 1.35693 9.64935 2.26807L 9.64935 9.57129C 9.64935 10.4819 8.93005 11.2144 8.03528 11.2144C 7.14056 11.2144 6.42126 10.4819 6.42126 9.57129ZM 12.8243 15.6606C 12.8243 16.5713 13.5436 17.3037 14.4384 17.3037C 15.3331 17.3037 16.0524 16.5537 16.0524 15.6606L 16.0524 2.26807C 16.0524 1.35693 15.3331 0.625 14.4384 0.625C 13.5436 0.625 12.8243 1.35693 12.8243 2.26807L 12.8243 15.6606ZM 42.8248 17.3037C 41.9301 17.3037 41.2108 16.5713 41.2108 15.6606L 41.2108 2.26807C 41.2108 1.35693 41.9301 0.625 42.8248 0.625C 43.7196 0.625 44.4389 1.35693 44.4389 2.26807L 44.4389 15.6606C 44.4389 16.5537 43.7196 17.3037 42.8248 17.3037ZM 47.6316 10.6069L 51.4211 10.6069C 52.3158 10.6069 53.0351 9.875 53.0351 8.96436C 53.0351 8.05322 52.3158 7.32129 51.4211 7.32129L 47.6316 7.32129C 46.7369 7.32129 46.0176 8.05322 46.0176 8.96436C 46.0176 9.875 46.7369 10.6069 47.6316 10.6069ZM 52.7369 3.91064L 47.6316 3.91064C 46.7369 3.91064 46.0176 3.17871 46.0176 2.26807C 46.0176 1.35693 46.7369 0.625 47.6316 0.625L 52.7369 0.625C 53.6316 0.625 54.3509 1.35693 54.3509 2.26807C 54.3509 3.17871 53.6316 3.91064 52.7369 3.91064ZM 59.1404 17.3037C 58.2457 17.3037 57.5264 16.5718 57.5264 15.6606L 57.5264 1.94678C 57.5264 1.03564 58.2457 0.303711 59.1404 0.303711C 60.0352 0.303711 60.7545 1.03564 60.7545 1.94678L 60.7545 15.6431C 60.7545 16.5537 60.0352 17.3037 59.1404 17.3037ZM 69.3683 13.6968L 76.3683 13.6968C 77.2631 13.6968 77.9824 14.4287 77.9648 15.3218C 77.9648 16.2324 77.2455 16.9644 76.3508 16.9644L 65.8771 16.9644C 65.5438 16.9644 65.1929 16.8574 64.8946 16.625C 64.4911 16.2861 64.2806 15.8037 64.2806 15.3218C 64.2806 14.9824 64.3859 14.625 64.6139 14.3218L 71.5087 6.07178C 72.0525 5.35742 73.0701 5.23242 73.7718 5.78613C 74.4736 6.33936 74.5964 7.375 74.0525 8.08936L 69.3683 13.6968ZM 32.9474 0.928711C 32.2632 0.339355 31.2457 0.428711 30.6843 1.10693L 24.8597 8C 24.772 8.10693 24.7018 8.21436 24.6492 8.32129C 24.5089 8.57129 24.4211 8.85693 24.4211 9.16064L 24.4211 15.6431C 24.4211 16.5537 25.1404 17.2856 26.0352 17.2856C 26.9299 17.2856 27.6492 16.5537 27.6492 15.6431L 27.6492 9.73193L 33.1404 3.23193C 33.7018 2.53564 33.6141 1.5 32.9474 0.928711ZM 21.4212 1.10742L 24.1756 4.41064C 24.7545 5.10742 24.6668 6.14307 24.0001 6.71436C 23.3335 7.30371 22.3159 7.23242 21.737 6.53564L 18.9826 3.23242C 18.4036 2.55371 18.4738 1.51807 19.158 0.928711C 19.8247 0.339355 20.8422 0.410645 21.4212 1.10742ZM 64.2806 2.26807C 64.2806 1.35693 64.9999 0.625 65.8946 0.625L 75.2631 0.625C 76.1578 0.625 76.8771 1.35693 76.8771 2.26807C 76.8771 3.17871 76.1578 3.91064 75.2631 3.91064L 65.8946 3.91064C 64.9999 3.91064 64.2806 3.17871 64.2806 2.26807Z"/>
</defs>
</svg>
